<?xml version="1.0" encoding="utf-8"?>
<!-- Generator: Adobe Illustrator 22.1.0, SVG Export Plug-In . SVG Version: 6.00 Build 0)  -->
<svg version="1.1" id="Layer_1" xmlns="http://www.w3.org/2000/svg" xmlns:xlink="http://www.w3.org/1999/xlink" x="0px" y="0px"
	 viewBox="0 0 150 150" style="enable-background:new 0 0 150 150;" xml:space="preserve">
<style type="text/css">
	.st0{fill:#FFFFFF;}
</style>
<g>
	<path class="st0" d="M114.4,69.3H70c-0.8,0-1.5,0.7-1.5,1.5v11.5c-0.4-1.9-1-3.5-2-5c-1.5-2.2-3.4-4.1-5.7-5.6
		c-2.3-1.4-4.8-2.5-7.6-3.1c-5.4-1.2-10.5-1.2-15.8-0.1c-2.7,0.6-5.2,1.5-7.6,2.9c-2.4,1.3-4.5,3.1-6.4,5.3c-1.8,2.2-3.3,5-4.3,8.2
		c-0.1,0.4-0.1,0.8,0.1,1.2c0.2,0.4,0.6,0.6,1,0.7l15,3.2c-0.7,0.1-1.3,0.7-1.3,1.5v12.9c0,0.6,0.3,1.1,0.8,1.3l-15.5,3.7
		c-0.4,0.1-0.7,0.3-0.9,0.7c-0.3,0.3-0.4,0.8-0.3,1.1c0.8,3.2,2.1,6,3.9,8.3c1.8,2.3,3.9,4.2,6.4,5.7c2.4,1.5,5.1,2.6,8,3.3
		c2.9,0.7,5.8,1,8.7,1s5.9-0.4,8.8-1.1c2.9-0.7,5.6-1.9,8-3.5c2.4-1.6,4.3-3.7,5.8-6.2c1.5-2.6,2.3-5.6,2.3-9.1
		c0-1.5-0.3-2.9-0.8-4.4c-0.5-1.4-1.2-2.8-2.2-4c-0.9-1.2-2-2.3-3.3-3.2c-0.4-0.3-0.9-0.6-1.4-0.9c1.4-0.8,2.6-1.8,3.7-3
		c1.6-1.8,2.5-4.2,2.8-7c0.3,0.4,0.7,0.7,1.3,0.7h21.4l-20,37.9c-0.2,0.5-0.2,1,0,1.5s0.8,0.7,1.3,0.7h21.7c0.6,0,1.1-0.3,1.4-0.9
		l19.9-42.4c0.1-0.2,0.1-0.4,0.1-0.6V70.8C115.9,69.9,115.2,69.3,114.4,69.3z M63.7,92.2c-1.5,1.7-3.2,2.8-5.3,3.4
		c-0.6,0.2-1.1,0.8-1.1,1.4v0.3c0,0.6,0.4,1.2,1,1.4c1.3,0.4,2.4,1,3.5,1.8c1.1,0.7,2,1.6,2.7,2.6c0.7,1,1.3,2,1.7,3.2
		c0.4,1.1,0.6,2.3,0.6,3.4c0,3-0.6,5.5-1.8,7.6c-1.2,2.1-2.9,3.9-4.9,5.3s-4.4,2.4-7,3c-5.3,1.3-10.8,1.3-16.1,0
		c-2.6-0.6-5-1.6-7.1-2.9s-4-3-5.6-5c-1.3-1.6-2.3-3.5-3-5.7l14.7-3.4c0.5,1.1,1.3,2.1,2.3,3.1c1.5,1.4,3.5,2.1,5.8,2.1
		c0.6,0,1.3-0.1,2-0.2c0.7-0.2,1.4-0.4,2-0.8c0.7-0.4,1.2-0.9,1.6-1.6c0.5-0.7,0.7-1.6,0.7-2.6c0-2.3-1.1-4-3.2-4.7
		c-1.6-0.6-3.7-0.9-6.4-0.9H37V93h4.5c2.2,0,4-0.3,5.4-1c1.2-0.6,2.7-1.8,2.7-4.5c0-1.8-0.8-3.1-2.2-3.9c-1.2-0.6-2.4-0.9-3.7-0.9
		c-1.6,0-3.1,0.5-4.5,1.5c-1,0.8-1.8,1.8-2.2,3l-14.3-3c0.8-2.2,1.9-4,3.2-5.6c1.6-1.9,3.5-3.5,5.5-4.7c2.1-1.2,4.4-2,6.7-2.6
		c4.8-1,9.5-1.1,14.5,0.1c2.4,0.6,4.7,1.5,6.7,2.7s3.6,2.8,4.8,4.7c1.2,1.8,1.8,4.1,1.8,6.7C65.8,88.4,65.1,90.6,63.7,92.2z
		 M38.2,105.9h2.6c2.3,0,4.1,0.2,5.4,0.7c0.7,0.3,1.2,0.7,1.2,1.9c0,0.4-0.1,0.8-0.2,1c-0.2,0.3-0.4,0.5-0.7,0.7
		c-0.3,0.2-0.7,0.4-1.1,0.4c-0.5,0.1-0.9,0.2-1.3,0.2c-1.6,0-2.8-0.4-3.7-1.3c-1-1-1.6-1.9-1.9-3C38.4,106.3,38.3,106.1,38.2,105.9z
		 M39.2,90c0.2-0.2,0.3-0.4,0.3-0.7c0.2-1.2,0.7-2,1.5-2.6c1.5-1.1,3.4-1.2,5-0.4c0.3,0.1,0.6,0.4,0.6,1.2c0,1.2-0.5,1.6-0.9,1.8
		c-1,0.5-2.4,0.7-4.2,0.7H39.2z M112.9,83.7L93.5,125H75.3l20-37.9c0.2-0.5,0.2-1,0-1.5s-0.8-0.7-1.3-0.7H71.5V72.3h41.4V83.7z"/>
	<path class="st0" d="M132.9,71.1c-1.5-1.5-3.5-2.3-5.7-2.3c-2.2,0-4.2,0.8-5.7,2.3s-2.3,3.5-2.3,5.7c0,2.2,0.8,4.2,2.3,5.7
		s3.5,2.3,5.7,2.3c2.2,0,4.2-0.8,5.7-2.3s2.3-3.5,2.3-5.7C135.2,74.6,134.5,72.7,132.9,71.1z M130.8,80.4c-1,1-2.1,1.4-3.6,1.4
		c-1.5,0-2.6-0.5-3.6-1.4c-1-1-1.4-2.1-1.4-3.6s0.5-2.6,1.4-3.6c1-1,2.1-1.4,3.6-1.4c1.5,0,2.6,0.5,3.6,1.4c1,1,1.4,2.1,1.4,3.6
		S131.8,79.4,130.8,80.4z"/>
	<path class="st0" d="M46.7,61.9c0,0.8,0.7,1.5,1.5,1.5s1.5-0.7,1.5-1.5c0-3.9,1.7-5.8,3.7-8c2.1-2.3,4.5-4.9,4.5-10
		s-2.4-7.7-4.5-10c-2-2.2-3.7-4.1-3.7-8c0-0.8-0.7-1.5-1.5-1.5s-1.5,0.8-1.5,1.6c0,5.1,2.4,7.7,4.5,10c2,2.2,3.7,4.1,3.7,8
		s-1.7,5.8-3.7,8C49.1,54.3,46.7,56.9,46.7,61.9z"/>
	<path class="st0" d="M68.5,61.9c0,0.8,0.7,1.5,1.5,1.5s1.5-0.7,1.5-1.5c0-3.9,1.7-5.8,3.7-8c2.1-2.3,4.5-4.9,4.5-10
		s-2.4-7.7-4.5-10c-2-2.2-3.7-4.1-3.7-8c0-1.5,0.3-2.8,0.8-3.9c0.3-0.8,0-1.6-0.8-2c-0.8-0.3-1.6,0-2,0.8c-0.7,1.6-1,3.2-1,5.1
		c0,5.1,2.4,7.7,4.5,10c2,2.2,3.7,4.1,3.7,8S75,49.8,73,52C70.9,54.3,68.5,56.9,68.5,61.9z"/>
	<path class="st0" d="M90.3,61.9c0,0.8,0.7,1.5,1.5,1.5s1.5-0.7,1.5-1.5c0-3.9,1.7-5.8,3.7-8c2.1-2.3,4.5-4.9,4.5-10
		s-2.4-7.7-4.5-10c-2-2.2-3.7-4.1-3.7-8c0-0.8-0.7-1.5-1.5-1.5s-1.5,0.8-1.5,1.6c0,5.1,2.4,7.7,4.5,10c2,2.2,3.7,4.1,3.7,8
		s-1.7,5.8-3.7,8C92.7,54.3,90.3,56.9,90.3,61.9z"/>
</g>
</svg>
