<?xml version="1.0" encoding="utf-8"?>
<!-- Generator: Adobe Illustrator 22.1.0, SVG Export Plug-In . SVG Version: 6.00 Build 0)  -->
<svg version="1.1" id="Layer_1" xmlns="http://www.w3.org/2000/svg" xmlns:xlink="http://www.w3.org/1999/xlink" x="0px" y="0px"
	 viewBox="0 0 150 150" style="enable-background:new 0 0 150 150;" xml:space="preserve">
<style type="text/css">
	.st0{fill:#FFFFFF;}
</style>
<g>
	<path class="st0" d="M128.7,98.8c-0.2-0.8-1-1.3-1.8-1.1l-8.1,2c2.1-3.9,3.7-8,4.7-12.2c6.9-27.8-10.2-56.1-38-62.9
		C72,21.2,58,23.3,46.1,30.5s-20.3,18.6-23.6,32s-1.2,27.5,6,39.4s18.6,20.3,32,23.6c4.1,1,8.3,1.5,12.4,1.5
		c14.2,0,28.1-5.8,38-16.5c0.6-0.6,0.5-1.6-0.1-2.1c-0.6-0.6-1.6-0.5-2.1,0.1c-12.1,12.9-30.3,18.3-47.5,14.1
		c-12.7-3.1-23.4-11-30.2-22.2c-6.7-11.3-8.7-24.4-5.5-37.1c3.1-12.7,11-23.4,22.2-30.2s24.4-8.8,37.1-5.6
		c26.2,6.5,42.3,33.1,35.8,59.3c-1,4-2.5,7.9-4.4,11.5l-1.5-8.5c-0.1-0.8-0.9-1.4-1.7-1.2c-0.8,0.1-1.4,0.9-1.2,1.7l2.1,12.1
		c0.1,0.4,0.3,0.8,0.7,1c0.2,0.2,0.5,0.2,0.8,0.2c0.1,0,0.2,0,0.4,0l11.9-3C128.4,100.4,128.9,99.6,128.7,98.8z"/>
	<path class="st0" d="M84.6,49.5c-0.8,0-1.5,0.7-1.5,1.5v16.3H66.8c-0.8,0-1.5,0.7-1.5,1.5v16.3H49c-0.8,0-1.5,0.7-1.5,1.5v17.8
		c0,0.8,0.7,1.5,1.5,1.5s1.5-0.7,1.5-1.5V88.1h16.3c0.8,0,1.5-0.7,1.5-1.5V70.3h16.3c0.8,0,1.5-0.7,1.5-1.5V52.5h16.3
		c0.8,0,1.5-0.7,1.5-1.5s-0.7-1.5-1.5-1.5H84.6z"/>
</g>
</svg>
