<?xml version="1.0" encoding="utf-8"?>
<!-- Generator: Adobe Illustrator 24.3.0, SVG Export Plug-In . SVG Version: 6.00 Build 0)  -->
<svg version="1.1" id="Layer_19" xmlns="http://www.w3.org/2000/svg" xmlns:xlink="http://www.w3.org/1999/xlink" x="0px" y="0px"
	 viewBox="0 0 132.2 132.2" style="enable-background:new 0 0 132.2 132.2;" xml:space="preserve">
<style type="text/css">
	.st0{fill:#FFFFFF;}
</style>
<g>
	<g>
		<g>
			<path class="st0" d="M36,65.5c-3.9,0-7.1-3.2-7.1-7.1s3.2-7.1,7.1-7.1s7.1,3.2,7.1,7.1S39.9,65.5,36,65.5z M36,54.3
				c-2.2,0-4.1,1.8-4.1,4.1c0,2.2,1.8,4.1,4.1,4.1c2.2,0,4.1-1.8,4.1-4.1C40.1,56.2,38.2,54.3,36,54.3z"/>
		</g>
	</g>
	<g>
		<g>
			<path class="st0" d="M96.8,65.5c-3.9,0-7.1-3.2-7.1-7.1s3.2-7.1,7.1-7.1s7.1,3.2,7.1,7.1S100.7,65.5,96.8,65.5z M96.8,54.3
				c-2.2,0-4.1,1.8-4.1,4.1c0,2.2,1.8,4.1,4.1,4.1s4.1-1.8,4.1-4.1C100.9,56.2,99.1,54.3,96.8,54.3z"/>
		</g>
	</g>
	<g>
		<path class="st0" d="M105.5,107.5h-0.8c-0.8,0-1.5-0.7-1.5-1.5V85.3c0-0.8,0.7-1.5,1.5-1.5h2.5V72c0-1.4-1.1-2.5-2.5-2.5h-16
			c-1.4,0-2.5,1.1-2.5,2.5v11.7h2.5c0.8,0,1.5,0.7,1.5,1.5V106c0,0.8-0.7,1.5-1.5,1.5H43.9c-0.8,0-1.5-0.7-1.5-1.5V85.3
			c0-0.8,0.7-1.5,1.5-1.5h2.5V72c0-1.4-1.1-2.5-2.5-2.5h-16c-1.4,0-2.5,1.1-2.5,2.5v11.7h2.5c0.8,0,1.5,0.7,1.5,1.5V106
			c0,0.8-0.7,1.5-1.5,1.5h-1.8c-0.3,0-25.7-0.3-25.7-26.6c0-0.6,0.1-14.2,6.1-28C12.2,40,24.2,24.6,49.7,24.6H83
			c25.5,0,37.5,15.4,43.2,28.3c6,13.8,6.1,27.5,6.1,28C132.3,107.2,105.8,107.5,105.5,107.5z M45.4,104.5h41.8V86.8h-2.5
			c-0.8,0-1.5-0.7-1.5-1.5V72c0-3.1,2.5-5.5,5.5-5.5h16c3.1,0,5.5,2.5,5.5,5.5v13.2c0,0.8-0.7,1.5-1.5,1.5h-2.5v17.8
			c4-0.2,23-2.3,23-23.6c0-0.1-0.1-13.6-5.9-26.9c-7.6-17.5-21.2-26.4-40.3-26.4H49.7c-19.1,0-32.7,8.9-40.4,26.5
			C3.5,67.3,3.4,80.8,3.4,81c0,23.2,21.8,23.6,22.7,23.6h0.3V86.8h-2.5c-0.8,0-1.5-0.7-1.5-1.5V72c0-3.1,2.5-5.5,5.5-5.5h16
			c3.1,0,5.5,2.5,5.5,5.5v13.2c0,0.8-0.7,1.5-1.5,1.5h-2.5V104.5z"/>
	</g>
</g>
<g>
	<g>
		<path class="st0" d="M76.2,77.7H56.5c-0.8,0-1.5-0.7-1.5-1.5c0-0.8,0.7-1.5,1.5-1.5h19.7c0.8,0,1.5,0.7,1.5,1.5
			C77.7,77,77,77.7,76.2,77.7z"/>
	</g>
	<g>
		<path class="st0" d="M59.1,83c-0.4,0-0.8-0.1-1.1-0.4l-5.3-5.3c-0.3-0.3-0.4-0.7-0.4-1.1c0-0.4,0.2-0.8,0.4-1.1l5.3-5.3
			c0.6-0.6,1.5-0.6,2.1,0s0.6,1.5,0,2.1L56,76.2l4.2,4.2c0.6,0.6,0.6,1.5,0,2.1C59.9,82.8,59.5,83,59.1,83z"/>
	</g>
	<g>
		<path class="st0" d="M73.5,83c-0.4,0-0.8-0.1-1.1-0.4c-0.6-0.6-0.6-1.5,0-2.1l4.2-4.2l-4.2-4.2c-0.6-0.6-0.6-1.5,0-2.1
			s1.5-0.6,2.1,0l5.3,5.3c0.6,0.6,0.6,1.5,0,2.1l-5.2,5.2C74.3,82.8,73.9,83,73.5,83z"/>
	</g>
</g>
</svg>
