<?xml version="1.0" encoding="utf-8"?>
<!-- Generator: Adobe Illustrator 22.1.0, SVG Export Plug-In . SVG Version: 6.00 Build 0)  -->
<svg version="1.1" id="Layer_1" xmlns="http://www.w3.org/2000/svg" xmlns:xlink="http://www.w3.org/1999/xlink" x="0px" y="0px"
	 viewBox="0 0 150 150" style="enable-background:new 0 0 150 150;" xml:space="preserve">
<style type="text/css">
	.st0{fill:#FFFFFF;}
</style>
<g>
	<path class="st0" d="M146,118.5H3.5c-0.8,0-1.5,0.6-1.5,1.5s0.7,1.5,1.5,1.5H146c0.8,0,1.5-0.7,1.5-1.5S146.9,118.5,146,118.5z"/>
	<path class="st0" d="M13,112.8c1.4,1.3,3.2,1.9,5.1,1.9c2.2,0,4.3-0.9,5.7-2.5l16.4-18.3c0.8,0.1,1.6,0.2,2.4,0.2
		c7.4,0,13.4-6,13.4-13.4c0-1.4-0.2-2.7-0.6-4l22-24.7l45.6,58.7c1.7,2.2,4.4,3.6,7.2,3.6c2,0,3.8-0.6,5.4-1.8
		c1.9-1.4,3.2-3.5,3.5-5.9s-0.3-4.7-1.7-6.7l0,0L85.1,32.6c-1.6-2.2-4.1-3.5-6.8-3.6c-2.7-0.1-5.3,1-7,3L44.5,61.8
		c-2,2.4-2.5,4.1-2.8,5.5c-7,0.5-12.6,6.3-12.6,13.4c0,0.8,0.1,1.5,0.2,2.3l-16.9,19c-1.4,1.5-2.1,3.5-1.9,5.5
		C10.5,109.5,11.4,111.4,13,112.8z M42.6,91.1l10.3-11.5c0,0.4,0.1,0.7,0.1,1.1C53,86.4,48.3,91,42.6,91.1z M40.4,70.4
		c-0.1,0.1-0.2,0.3-0.4,0.4l-7.9,8.9C32.5,75.1,36,71.4,40.4,70.4z M14.6,104l27.7-31.1c1.6-1.8,1.9-3.2,2.2-4.5s0.6-2.6,2.3-4.6
		L73.6,34c1.1-1.3,2.7-2,4.4-2c0.1,0,0.2,0,0.2,0c1.8,0.1,3.4,0.9,4.5,2.4l52.2,67.3c1,1.3,1.4,2.9,1.1,4.4c-0.2,1.6-1,3-2.3,3.9
		c-1,0.8-2.3,1.2-3.6,1.2c-1.9,0-3.6-0.9-4.8-2.4L78.7,48.7c-0.3-0.4-0.7-0.6-1.1-0.6s-0.9,0.2-1.2,0.5L52.3,75.5
		c-0.1,0.1-0.1,0.2-0.2,0.3c-0.2,0.3-0.4,0.6-0.6,0.8l-30,33.5c-0.9,1-2.1,1.5-3.5,1.5c-1.1,0-2.2-0.4-3.1-1.2
		c-0.9-0.8-1.5-2-1.5-3.2S13.8,104.9,14.6,104z"/>
</g>
</svg>
